<?xml version="1.0" ?><svg viewBox="0 0 512 512" xmlns="http://www.w3.org/2000/svg"><defs><style>.cls-1{fill:#bebebe;}.cls-2{fill:#dfdfdf;}.cls-3{fill:#a2a2a2;}.cls-4{fill:#f9b7b7;}.cls-5{fill:#0071af;}.cls-6{fill:#d27676;}.cls-7{fill:#ea8383;}.cls-8{fill:#7db6d6;}.cls-9{fill:#5ca4cc;}.cls-10{fill:#00b378;}.cls-11{fill:#bdecdc;}.cls-12{fill:#006095;}.cls-13{fill:#096;}.cls-14{fill:#fda5a3;}.cls-15{fill:#b36565;}.cls-16{fill:#b58585;}.cls-17{fill:#6b9bb6;}</style></defs><title/><g data-name="/ FLAT" id="_FLAT"><path class="cls-1" d="M24,280v32a16.00008,16.00008,0,0,0,16,16H424a16.00008,16.00008,0,0,0,16-16V280Z"/><path class="cls-2" d="M392,24H72A16.00008,16.00008,0,0,0,56,40V280H408V40A16.00008,16.00008,0,0,0,392,24Z"/><path class="cls-1" d="M300.01648,280H408V159.86646A305.36106,305.36106,0,0,1,300.01648,280Z"/><path class="cls-3" d="M136.00031,328H424a16.00008,16.00008,0,0,0,16-16V280H300.01648A302.5728,302.5728,0,0,1,136.00031,328Z"/><path class="cls-4" d="M342.62939,239.44751A31.99947,31.99947,0,0,0,319.49011,220.669L256,207.9707v-9.49023a26.94766,26.94766,0,0,1,12-22.42212,26.94832,26.94832,0,0,0,12-22.42212V56.05835L216.02917,56A32,32,0,0,0,184,88v65.54858a26.94766,26.94766,0,0,0,12,22.42212,26.94843,26.94843,0,0,1,12,22.42237v9.57763L144.50989,220.669a31.99971,31.99971,0,0,0-23.13935,18.77856L104,280H360Z"/><path class="cls-5" d="M320,168H472a16,16,0,0,0,16-16V72a16,16,0,0,0-16-16H344a16,16,0,0,0-16,16v58.66667a16,16,0,0,1-3.2,9.6L313.6,155.2A8,8,0,0,0,320,168Z"/><path class="cls-6" d="M184,103.97082l96-24V56.05835l-63.98055-.03889a32,32,0,0,0-32.01945,32Z"/><rect class="cls-7" height="16" width="16" x="208" y="119.9707"/><rect class="cls-7" height="16" width="16" x="240" y="119.9707"/><path class="cls-7" d="M232,171.72363a43.80183,43.80183,0,0,1-19.57764-4.59765l7.15528-14.31055a27.91375,27.91375,0,0,0,24.84472,0l7.15528,14.31055A43.80183,43.80183,0,0,1,232,171.72363Z"/><rect class="cls-8" height="16" width="112" x="352" y="88"/><rect class="cls-8" height="16" width="112" x="352" y="120"/><rect class="cls-9" height="16" width="16" x="88" y="64"/><rect class="cls-9" height="16" width="16" x="88" y="104"/><rect class="cls-9" height="16" width="16" x="88" y="144"/><path class="cls-5" d="M319.49011,220.669,256.438,208.05835H256l-12.68634,12.63989a16,16,0,0,1-22.60675-.02051L208,207.9707l-.0011.00025-63.489,12.698a31.99971,31.99971,0,0,0-23.13935,18.77856L104,280H360l-17.37061-40.55249A31.99947,31.99947,0,0,0,319.49011,220.669Z"/><path class="cls-10" d="M213.57779,360H40a16,16,0,0,0-16,16v96a16,16,0,0,0,16,16H152a16,16,0,0,0,16-16V416.56292a16,16,0,0,1,7.1248-13.31281l42.89059-28.59371A8,8,0,0,0,213.57779,360Z"/><rect class="cls-11" height="16" width="64" x="48" y="448"/><rect class="cls-11" height="16" width="96" x="48" y="416"/><rect class="cls-11" height="16" width="96" x="48" y="384"/><path class="cls-12" d="M376.00012,168H472a16.00008,16.00008,0,0,0,16-16V72a15.97586,15.97586,0,0,0-.6051-4.31372A112.01319,112.01319,0,0,1,376.00012,168Z"/><path class="cls-12" d="M300.01648,280H360l-15.073-35.18872A305.0542,305.0542,0,0,1,300.01648,280Z"/><path class="cls-13" d="M168,472V442.90039A80.00094,80.00094,0,0,1,96.00006,488H152A16.00008,16.00008,0,0,0,168,472Z"/><path class="cls-14" d="M401.16724,272H368v48l39.80066-19.90039A14.83282,14.83282,0,0,0,416,286.833h0A14.83268,14.83268,0,0,0,401.16724,272Z"/><path class="cls-14" d="M272,286.833h0a14.83282,14.83282,0,0,0,8.19934,13.2666L320,320V272H286.83276A14.83268,14.83268,0,0,0,272,286.833Z"/><path class="cls-10" d="M464.59839,429.49609a48.00034,48.00034,0,0,0-30.77417-28.14892L376,384H312l-57.82428,17.34717a48.00048,48.00048,0,0,0-30.77417,28.14892L216,448H472Z"/><path class="cls-6" d="M352,208H336a48,48,0,0,0-48,48v48.8042a55.999,55.999,0,0,0,16.402,39.59766l2.91174,2.91162A16.00131,16.00131,0,0,1,312,358.62744V384h64V358.62744a16.00131,16.00131,0,0,1,4.68628-11.314l2.91174-2.91162A55.999,55.999,0,0,0,400,304.8042V256A48,48,0,0,0,352,208Z"/><rect class="cls-4" height="25.37256" width="64" x="312" y="358.62744"/><path class="cls-13" d="M364.811,448H472l-7.40161-18.50391a48.00034,48.00034,0,0,0-30.77417-28.14892l-12.67114-3.80127A281.52228,281.52228,0,0,1,364.811,448Z"/><path class="cls-15" d="M380.68628,347.31348l2.91174-2.91162a55.98683,55.98683,0,0,0,16.37024-38.31836A144.35794,144.35794,0,0,1,312,378.36523V384h64V358.62744A16.00131,16.00131,0,0,1,380.68628,347.31348Z"/><path class="cls-16" d="M312,378.36523V384h64V358.62744H353.62378A143.36953,143.36953,0,0,1,312,378.36523Z"/><path class="cls-1" d="M456,432H232a31.99986,31.99986,0,0,0-32,32v32H488V464A31.99986,31.99986,0,0,0,456,432Z"/><path class="cls-3" d="M456,432H386.179a278.85314,278.85314,0,0,1-178.17865,64H488V464A31.99986,31.99986,0,0,0,456,432Z"/><path class="cls-17" d="M464,136V125.27539A112.60985,112.60985,0,0,1,454.37378,136Z"/></g></svg>